# xmcd
#
# Track frame offsets: 
#        150
#        9514
#        29121
#        51103
#        61406
#        82545
#        132580
#        156170
#        185830
#        243825
#        274981
#        312757
#        346552
#
# Disc length: 4776 seconds
#
# Revision: 0
# Processed by: cddbd v1.5.2PL0 Copyright (c) Steve Scherf et al.
# Submitted via: ExactAudioCopy v1.0b4
#
DISCID=ad12a60d
DTITLE=Harper - Epocalypse
DYEAR=2003
DGENRE=Blues Rock
TTITLE0=Prelude Op. 32 No. 12 - Rachmaninoff
TTITLE1=The Poet and the Puppets
TTITLE2=Tranquillity Bass
TTITLE3=Amazon
TTITLE4=A Day In The Life
TTITLE5=Piano Concerto No. 1 - Rachmaninoff
TTITLE6=Infinium Part I
TTITLE7=Omicron
TTITLE8=Moonlight Sonata - Beethoven
TTITLE9=Salvation
TTITLE10=Barcole - Chopin
TTITLE11=Infinium Part Ii
TTITLE12=El Loro Triste
EXTD=
EXTT0=
EXTT1=
EXTT2=
EXTT3=
EXTT4=
EXTT5=
EXTT6=
EXTT7=
EXTT8=
EXTT9=
EXTT10=
EXTT11=
EXTT12=
PLAYORDER=
